<svg xmlns="http://www.w3.org/2000/svg" width="294" height="294" viewBox="0 0 294 294" fill="none">
<circle cx="147" cy="147" r="111" transform="rotate(24.3109 147 147)" fill="black"/>
<path d="M253.828 116.854C245.832 88.5211 226.909 64.5252 201.222 50.1447C175.534 35.7643 145.186 32.1772 116.853 40.1726C88.5209 48.168 64.525 67.091 50.1445 92.7787C35.764 118.466 32.177 148.815 40.1724 177.147L147 147L253.828 116.854Z" fill="white"/>
<path d="M253.812 116.797C257.778 130.824 258.943 145.495 257.239 159.971C255.536 174.448 250.998 188.448 243.884 201.171C236.77 213.894 227.22 225.091 215.779 234.123C204.338 243.156 191.229 249.846 177.203 253.812C163.176 257.778 148.505 258.943 134.028 257.239C119.551 255.536 105.552 250.998 92.8288 243.884C80.1058 236.77 68.9086 227.22 59.8764 215.779C50.8443 204.337 44.1541 191.229 40.1879 177.202L45.5285 175.692C49.2964 189.018 55.6521 201.47 64.2326 212.34C72.8132 223.209 83.4505 232.281 95.5374 239.04C107.624 245.798 120.924 250.109 134.677 251.727C148.43 253.346 162.367 252.239 175.692 248.471C189.018 244.703 201.471 238.348 212.34 229.767C223.209 221.187 232.282 210.549 239.04 198.462C245.798 186.376 250.109 173.076 251.727 159.323C253.346 145.57 252.239 131.633 248.471 118.307L253.812 116.797Z" fill="white"/>
<path d="M253.812 116.797C245.802 88.4689 226.866 64.4829 201.171 50.1159C175.476 35.7489 145.125 32.1778 116.797 40.1881C88.4689 48.1983 64.4829 67.1339 50.1159 92.8292C35.7489 118.524 32.1778 148.875 40.1881 177.203L45.5287 175.693C37.9189 148.781 41.3115 119.948 54.9601 95.5377C68.6088 71.1272 91.3955 53.1384 118.307 45.5287C145.219 37.9189 174.052 41.3115 198.462 54.9601C222.873 68.6088 240.862 91.3955 248.471 118.307L253.812 116.797Z" fill="black"/>
<path d="M171.06 140.21C170.169 137.051 168.663 134.097 166.63 131.52C164.598 128.942 162.077 126.789 159.212 125.186C156.347 123.582 153.195 122.558 149.935 122.173C146.674 121.787 143.37 122.048 140.21 122.94C137.051 123.831 134.097 125.337 131.52 127.37C128.942 129.402 126.789 131.923 125.186 134.788C123.582 137.653 122.558 140.805 122.173 144.065C121.787 147.326 122.048 150.63 122.94 153.79L147 147L171.06 140.21Z" fill="black"/>
<path d="M171.046 140.16C171.944 143.317 172.212 146.621 171.833 149.882C171.455 153.144 170.438 156.298 168.84 159.166C167.242 162.034 165.095 164.56 162.522 166.598C159.948 168.636 156.998 170.148 153.84 171.046C150.683 171.944 147.379 172.212 144.118 171.833C140.856 171.455 137.702 170.438 134.834 168.84C131.966 167.242 129.44 165.095 127.402 162.522C125.364 159.948 123.852 156.998 122.954 153.84L147 147L171.046 140.16Z" fill="white"/>
<path d="M219.192 126.669C216.522 117.188 212.011 108.327 205.916 100.59C199.821 92.8527 192.262 86.3919 183.671 81.5763C175.079 76.7606 165.623 73.6844 155.843 72.5231C146.062 71.3619 136.149 72.1384 126.669 74.8084C117.188 77.4783 108.327 81.9895 100.59 88.0842C92.8527 94.1789 86.3919 101.738 81.5763 110.329C76.7606 118.921 73.6843 128.377 72.5231 138.157C71.3619 147.938 72.1384 157.851 74.8084 167.331L89.2467 163.265C87.1107 155.681 86.4895 147.75 87.4185 139.926C88.3475 132.101 90.8085 124.537 94.661 117.663C98.5135 110.79 103.682 104.743 109.872 99.8673C116.061 94.9916 123.151 91.3827 130.735 89.2467C138.319 87.1107 146.25 86.4895 154.074 87.4185C161.899 88.3475 169.463 90.8085 176.337 94.661C183.21 98.5135 189.257 103.682 194.133 109.872C199.008 116.061 202.617 123.151 204.753 130.735L219.192 126.669Z" fill="black"/>
<path d="M219.175 126.609C224.583 145.751 222.165 166.257 212.454 183.617C202.742 200.976 186.533 213.767 167.391 219.175C148.249 224.583 127.743 222.165 110.383 212.454C93.0237 202.742 80.2331 186.533 74.8251 167.391L89.2601 163.313C93.5865 178.626 103.819 191.594 117.707 199.363C131.594 207.132 147.999 209.066 163.313 204.74C178.626 200.414 191.594 190.181 199.363 176.293C207.132 162.406 209.066 146.001 204.74 130.687L219.175 126.609Z" fill="white"/>
</svg>